<svg id="Layer_1" data-name="Layer 1" xmlns="http://www.w3.org/2000/svg" viewBox="0 0 100 100"><defs><style>.cls-1{fill:#656565;}</style></defs><path class="cls-1" d="M71.57,28.59l-.25,0a19,19,0,0,1-10.44-1.78c-.43-.21-.44-.23-.26-.7C61.8,23,63,19.72,64.12,16.59c.64-1.76,1.29-3.52,1.93-5.29a2.08,2.08,0,0,0-.5-2.62A2,2,0,0,0,63,8.91l-2.61,1.85c-1.49,1.05-3,2.14-4.53,3.25-.43.31-.58.35-.63.33s-.15-.05-.38-.48c-.56-1-1.21-2-1.84-2.95l-.76-1.16c-.63-1-1.27-1.47-1.94-1.47h0c-.7,0-1.32.48-2,1.51-.23.36-.46.72-.7,1.08-.67,1-1.36,2.11-2,3.19a1.85,1.85,0,0,1-.23.34s-.09,0-.35-.2c-2.4-1.76-4.87-3.48-7.27-5.15l-.39-.27a2.15,2.15,0,0,0-1.9-.35,1.76,1.76,0,0,0-1.12,1.15,2.54,2.54,0,0,0,.18,1.72l1.23,3.36c1.37,3.78,2.8,7.69,4.22,11.52.16.44.16.45-.23.64a19.18,19.18,0,0,1-10.14,1.82,15.9,15.9,0,0,0-3.31.06A12.75,12.75,0,0,0,15.2,40.52a2.08,2.08,0,0,0,.8,1.9,2,2,0,0,0,2,.08,23.15,23.15,0,0,0,2.41-1.15.66.66,0,0,1,.24-.11,1.14,1.14,0,0,1,.13.3c.22.62.47,1.22.71,1.81.15.37.3.74.44,1.11a1.83,1.83,0,0,0,2,1.3A1.8,1.8,0,0,0,25.6,44a11.22,11.22,0,0,1,.52-2.55c.84-2.32,2.18-3.55,4.23-3.84a16.77,16.77,0,0,1,2-.12c.58,0,1.17,0,1.79-.08l-.42.51a77.31,77.31,0,0,0-8.3,12.22c-3.85,7.19-5.52,13.43-5.26,19.65A24.9,24.9,0,0,0,30.32,89.28a3.37,3.37,0,0,0,2.13.72h0c11.42,0,23.41,0,35.62,0h0a3.34,3.34,0,0,0,2.13-.69,24.85,24.85,0,0,0,6.91-7.77C80.7,75.2,81.41,68.25,79.3,60.3c-1.47-5.56-4.21-11.08-8.61-17.37-1.31-1.86-2.71-3.64-4.26-5.56.67.07,1.3.08,1.93.1s1,0,1.46.06A4.88,4.88,0,0,1,74,40.34a9.85,9.85,0,0,1,1,3.6,1.83,1.83,0,0,0,1.6,1.82,1.88,1.88,0,0,0,2.11-1.36c.14-.38.29-.76.45-1.13.24-.61.49-1.24.72-1.87a.87.87,0,0,1,.07-.17l.13.06c.73.39,1.54.78,2.48,1.19a2.08,2.08,0,0,0,2.06-.06,2.12,2.12,0,0,0,.79-2A12.88,12.88,0,0,0,71.57,28.59ZM40,15.18l.67.48,3.74,2.64a2.59,2.59,0,0,0,1.88.62,2.54,2.54,0,0,0,1.5-1.26l.44-.69c.7-1.08,1.42-2.2,2.1-3.31v0c.89,1.45,1.8,2.86,2.66,4.18a1.92,1.92,0,0,0,3.09.61L60,15.67l.68-.48c0,.06-.05.12-.07.17-.34.95-.68,1.89-1,2.84C59,19.62,58.47,21.09,58,22.55c-.15.42-.22.48-.6.48-2.44,0-4.89,0-7.33,0H43.12c-.34,0-.34,0-.4-.17-.77-2.16-1.56-4.35-2.33-6.46ZM56.43,26.75l0,.1,0,.12a2.82,2.82,0,0,1-.5,1.05,3,3,0,0,1-1.2.11H45.19c-.1,0-.2,0-.3,0l-.19,0h0a10.28,10.28,0,0,1-.5-1.41h7.74c1.43,0,2.91,0,4.38,0Zm-23.77,7c-4.18-.17-7.18,1.3-9.17,4.49a1.91,1.91,0,0,0-1.77-1.37h-.16a4.33,4.33,0,0,0-1.7.6l-.07,0a8.76,8.76,0,0,1,3.94-4.06,9.51,9.51,0,0,1,5.39-1A22.69,22.69,0,0,0,40,30.81a5.77,5.77,0,0,1-.86.78A10.5,10.5,0,0,1,32.66,33.72ZM72.39,52.87c3.21,6.24,4.57,11.65,4.27,17A21.61,21.61,0,0,1,68.4,86a1.32,1.32,0,0,1-.92.23h-21c-4.33,0-8.81,0-13.22,0h0a1.87,1.87,0,0,1-1.32-.46A21.84,21.84,0,0,1,24,65.91c.82-7.95,4.74-14.65,8.07-19.6A103.35,103.35,0,0,1,43.85,32.19a1,1,0,0,1,.8-.32h0c3.64,0,7.28,0,11.31,0a.74.74,0,0,1,.66.2C62,37.66,68.08,44.49,72.39,52.87Zm8.27-15.45A4.17,4.17,0,0,0,79,36.85,1.85,1.85,0,0,0,77.1,38.2a8.7,8.7,0,0,0-7.81-4.45h-.14a13.78,13.78,0,0,1-6.07-1.16,8.8,8.8,0,0,1-2.47-1.77,22.89,22.89,0,0,0,11.16,1.53,9.19,9.19,0,0,1,9,5.13Z"/><path class="cls-1" d="M42,52.75a1.78,1.78,0,0,0,2,1.72c1.27,0,2.55,0,3.82,0A3.47,3.47,0,0,1,51,56.67H43.88a1.72,1.72,0,1,0,0,3.42H51a3.71,3.71,0,0,1-3.24,2.18c-1.32.05-2.64,0-4,0a1.71,1.71,0,0,0-1.7,1.11,1.68,1.68,0,0,0,.43,1.92q4.73,4.5,9.48,9a1.57,1.57,0,0,0,1.52.43,1.74,1.74,0,0,0,1-.58,1.71,1.71,0,0,0-.23-2.41l-5.7-5.4c-.18-.17-.43-.29-.46-.56a7.38,7.38,0,0,0,6.4-5.2c.13-.38.27-.54.68-.5a15.32,15.32,0,0,0,1.66,0H57a1.71,1.71,0,1,0-.09-3.42,10.44,10.44,0,0,0-1.37,0c-.61.07-1-.06-1.11-.74a6.77,6.77,0,0,0-.65-1.47h2.87c1.23,0,2.05-.71,2-1.75a1.78,1.78,0,0,0-2-1.69H44A1.77,1.77,0,0,0,42,52.75Z"/></svg>