<svg id="fb4c328a-32c2-438d-aed8-53c67414fef5" data-name="Layer 1" xmlns="http://www.w3.org/2000/svg" viewBox="0 0 759.76471 305.88235"><path d="M149.9386,3.2136l-1.13831,15.29809A135.08722,135.08722,0,0,1,267.32,111.27085l14.66333-4.522A150.43756,150.43756,0,0,0,149.9386,3.2136Z" fill="#08608e"/><path d="M268.094,192.59043A135.08558,135.08558,0,0,1,81.76361,275.4647l-6.49847,13.89837a150.43536,150.43536,0,0,0,207.50317-92.29126Z" fill="#065c8f"/><path d="M244.45117,210.38462A120.0413,120.0413,0,0,1,27.014,196.46226L13.02167,201.876a135.04643,135.04643,0,0,0,244.6167,15.66272Z" fill="#006daa"/><path d="M18.95312,153.1522A120.03994,120.03994,0,0,1,189.34839,44.22458l6.29944-13.6159A135.07362,135.07362,0,0,0,8.0014,186.06351l14.55017-3.65686A120.23394,120.23394,0,0,1,18.95312,153.1522Z" fill="#002f46"/><path d="M138.95312,33.1522A119.89741,119.89741,0,0,0,38.14764,88.03348l12.60071,8.13983A105.00436,105.00436,0,0,1,217.96466,84.0048L229.252,74.12662A119.71005,119.71005,0,0,0,138.95312,33.1522Z" fill="#1a89d1"/><path d="M239.949,181.96738A105.04543,105.04543,0,0,1,138.95312,258.1522c-.75506,0-1.50708-.0127-2.2583-.02857l-.32263,14.99591c.85858.01813,1.718.03266,2.58093.03266A120.05193,120.05193,0,0,0,254.377,186.08384Z" fill="#00619b"/><path d="M72.23877,213.55942A89.999,89.999,0,0,1,138.95312,63.1522c2.16645,0,4.31366.08136,6.44178.23187l1.07367-14.96143c-2.48279-.17559-4.98792-.27044-7.51545-.27044A104.99883,104.99883,0,0,0,61.11975,223.62729Z" fill="#00629d"/><path d="M98.994,250.27323l5.70843-13.87445a90.19172,90.19172,0,0,1-32.591-22.98285L60.97113,223.45987A105.22393,105.22393,0,0,0,98.994,250.27323Z" fill="#1391c1"/><path d="M240.09729,181.42643l-14.44916-4.03919a90.06942,90.06942,0,0,1-121.13238,58.93531l-5.7395,13.86169a105.08084,105.08084,0,0,0,141.321-68.75781Z" fill="#0eb9e7"/><path d="M235.42957,111.6594,221.64722,117.587a89.34778,89.34778,0,0,1,3.12939,8.4007l14.304-4.52741A104.21164,104.21164,0,0,0,235.42957,111.6594Z" fill="#0cb8de"/><path d="M225.64813,177.38724,211.181,173.343a75.01578,75.01578,0,0,1-72.22785,54.80921c-.60638,0-1.20507-.03144-1.808-.04572l-.36224,15.01825c.72149.01709,1.44464.02747,2.17022.02747A90.036,90.036,0,0,0,225.64813,177.38724Z" fill="#8ed3fa"/><path d="M63.95312,153.1522A74.99254,74.99254,0,0,1,169.948,84.86051l6.2091-13.68066A90.04583,90.04583,0,0,0,55.09027,185.87528l13.99524-5.46094A74.76948,74.76948,0,0,1,63.95312,153.1522Z" fill="#0b8dc1"/><path d="M176.082,71.14481l-6.1969,13.6872a75.17512,75.17512,0,0,1,40.89368,46.71289l14.37549-4.32453A90.2386,90.2386,0,0,0,176.082,71.14481Z" fill="#85daef"/><path d="M63.95312,153.1522a75.01117,75.01117,0,0,0,46.51026,69.3836l5.69794-13.87677A60.00256,60.00256,0,0,1,138.95312,93.1522c1.44532,0,2.87366.06921,4.2934.16974l1.07337-14.95752c-1.77466-.12561-3.56012-.21222-5.36677-.21222A75,75,0,0,0,63.95312,153.1522Z" fill="#9df"/><path d="M138.95312,198.1522a45,45,0,1,1,42.86036-58.726l14.2868-4.57531a60.00541,60.00541,0,1,0,.8009,33.87011l-14.487-3.89221A45.0126,45.0126,0,0,1,138.95312,198.1522Z" fill="#1c8ac5"/><text transform="translate(248.16498 178.35564)" font-size="84.18961" fill="#05354b" font-family="FranklinGothic-HeavyItalic, Franklin Gothic Heavy" font-weight="800" font-style="italic" letter-spacing="0.01em">Cybe<tspan x="195.95996" y="0" letter-spacing="0.02806em">r</tspan><tspan x="231.25" y="0">t</tspan><tspan x="262.4707" y="0" letter-spacing="0.01293em">r</tspan><tspan x="296.4873" y="0">onics</tspan></text></svg>