<?xml version="1.0" encoding="utf-8"?>
<!-- Generator: Adobe Illustrator 16.0.0, SVG Export Plug-In . SVG Version: 6.00 Build 0)  -->
<!DOCTYPE svg PUBLIC "-//W3C//DTD SVG 1.1//EN" "http://www.w3.org/Graphics/SVG/1.1/DTD/svg11.dtd">
<svg version="1.1" id="Layer_1" xmlns="http://www.w3.org/2000/svg" xmlns:xlink="http://www.w3.org/1999/xlink" x="0px" y="0px"
	 width="40px" height="40px" viewBox="0 0 40 40" enable-background="new 0 0 40 40" xml:space="preserve">
<g>
	<path fill-rule="evenodd" clip-rule="evenodd" fill="#040404" d="M14.495,20.831C8.903,16.72,8.986,9.656,12.95,5.622
		c3.945-4.015,10.495-3.906,14.309,0.219c3.793,4.104,3.693,10.998-1.677,14.916c0.104,0.227,0.341,0.213,0.524,0.287
		c7.002,2.842,10.927,8.018,11.794,15.525c0.065,0.563-0.058,0.747-0.663,0.736c-1.713-0.027-1.714,0.002-1.951-1.748
		c-0.882-6.503-6.484-12.078-12.981-12.921C13.792,21.531,6.44,26.807,4.78,35.211c-0.021,0.107-0.045,0.214-0.06,0.322
		c-0.073,0.566,0.053,1.391-0.266,1.635c-0.387,0.296-1.152,0.064-1.746,0.132c-0.603,0.067-0.658-0.211-0.613-0.703
		c0.342-3.783,1.664-7.166,4.089-10.103C8.383,23.834,11.142,21.983,14.495,20.831z M19.977,5.148
		c-4.104,0.021-7.39,3.329-7.383,7.435c0.006,4.077,3.365,7.422,7.433,7.403c4.08-0.02,7.394-3.362,7.386-7.452
		C27.404,8.442,24.067,5.127,19.977,5.148z"/>
</g>
</svg>
